<?xml version="1.0" encoding="UTF-8"?>
<svg width="143px" height="53px" viewBox="0 0 143 53" version="1.1" xmlns="http://www.w3.org/2000/svg" xmlns:xlink="http://www.w3.org/1999/xlink">
    <!-- Generator: Sketch 63.1 (92452) - https://sketch.com -->
    <title>logo</title>
    <desc>Created with Sketch.</desc>
    <g id="Page-1" stroke="none" stroke-width="1" fill="none" fill-rule="evenodd">
        <g id="logo" fill="#FFFFFF" fill-rule="nonzero">
            <path d="M59.6994796,14.5384658 C60.1952225,19.2776281 59.3041403,23.1734334 56.4740133,25.7979097 C52.9159599,24.0356715 51.5918872,21.2790273 51.1902727,17.8804249 C47.6435997,19.2662806 44.1727082,20.8398197 40.7922227,22.5944123 C38.1001507,23.916091 35.088042,25.4580495 32.8226853,26.8300779 L30.6451818,28.3028056 C33.1615476,25.3132942 36.4560414,23.1734334 39.8070122,20.9076985 C43.2632428,18.6497144 46.9205901,16.7176839 50.7321812,15.1363681 L51.2781259,14.922382 C51.4043493,14.8652357 51.5343444,14.8168697 51.6671899,14.7776268 C51.7864192,14.7776268 51.7864192,15.268536 51.7864192,15.4069976 C52.3198134,18.0755298 54.026675,20.6181879 56.1288758,21.5118945 C58.2122509,18.8685371 58.5009114,15.9860187 57.8733887,12.0083952 C59.599076,10.9132899 61.6196988,9.44056224 62.8057166,7.55244979 C59.2476633,8.81119142 55.8088393,10.1769261 52.4766941,11.6370664 C51.6232633,12.0713322 51.2655754,12.03357 52.4766941,11.2405628 C56.0340682,8.92507064 59.7962202,6.94259625 63.7156244,5.31818339 C63.7796182,4.99464993 63.8153135,4.66612867 63.8223033,4.33636492 C59.0405808,2.5489518 54.497317,6.96084122 54.497317,7.18112101 C50.4309703,5.52587576 48.2534668,4.99091057 44.7832667,6.60209986 C45.2162573,8.8741285 47.343559,11.3916118 50.5941262,12.6503534 C50.4698442,12.7293224 50.3397853,12.7987511 50.2050622,12.8580458 L42.4488825,17.4839213 L39.3112693,19.3720337 C34.1792606,22.6313509 29.2522499,26.2045482 24.5582123,30.0713376 L24.5142857,30.0713376 C27.4475122,26.9316632 30.5389635,23.9445419 33.7765197,21.1216846 C37.7611347,17.6858709 42.0888986,14.6719793 46.6909355,12.1279756 C42.2669009,10.4664367 41.2314886,7.0237783 40.6980943,5.27412744 C42.9006988,4.13496626 46.0885137,2.12727336 54.2463079,5.52587576 C55.6707843,4.27342784 60.0759932,0.100699331 67.392907,1.57342704 C67.4617537,2.41077837 67.3460648,3.25306694 67.0540448,4.04056064 C73.2067284,1.97025343 79.5758686,0.614540725 86.0366044,1.77635684e-14 C87.2414478,0.0377622489 86.249962,0.358741365 85.9173751,0.497202944 C78.7385162,2.38531539 72.0616754,4.33636492 65.7864491,6.49510682 C64.4694513,8.35436228 62.87091,9.99583481 61.0486532,11.3601432 C63.1854753,10.7532121 65.3563389,10.2740474 67.5497877,9.92517777 C71.496905,9.25175099 75.0675088,8.63496759 78.9330482,9.06923346 C75.3059674,10.0258771 71.5973086,10.6615416 68.0267049,11.8132902 C64.56278,12.8014024 62.0526894,13.7832209 59.6994796,14.5384658 Z M53.2140894,37.5392508 C53.0706216,36.4032831 52.9022028,34.892753 51.1993021,34.892753 C50.4719955,34.9608515 49.7920552,35.2781299 49.2780807,35.7892465 L52.3283315,43.648915 C52.9022028,45.3006735 53.8066739,45.3743579 54.6362923,45.7857624 L54.3992585,46.3261146 C50.457012,45.712078 48.3673719,45.0980414 47.8558779,43.2559316 L46.8703162,39.6269753 L46.8079389,39.6269753 C45.6477208,42.5559299 45.3108833,42.9059307 44.4625518,45.9147101 L40.2458451,45.5831304 L43.6703599,28.0462448 L40.1772301,27.7146651 L40.04,27.1743129 L48.2613304,26.0076433 L44.8867176,42.5866317 L44.9490949,42.6664565 C45.9159433,39.7313615 48.991145,32.7866075 52.7337841,32.7866075 C53.4701598,32.8346922 54.1736319,33.1048281 54.7485714,33.5602936 L54.1247983,37.5392508 L53.2140894,37.5392508 Z M10.8761236,38.1216091 L9.74837093,44.1762985 L12.4626232,44.876372 L12.341565,45.5133758 L1.66932888,45.5133758 L1.80950153,44.876372 L4.77224172,44.1762985 L5.83627959,38.3171251 L2.72062378,28.9701983 L2.84217094e-14,28.2701248 L0.140172654,27.633121 L10.2899471,27.633121 L10.1497744,28.2701248 L7.81143971,28.9701983 L10.5320635,36.9989688 L15.3043052,28.9701983 L12.5263381,28.2701248 L12.6665107,27.633121 L19.6114286,27.633121 L19.4712559,28.2701248 L17.0946923,28.9701983 L10.8761236,38.1216091 Z M22.0175643,32.5095541 C25.8038217,32.5095541 27.7701302,33.7839584 27.7828571,37.0961475 C27.7828571,42.0802036 25.2692913,46.3261146 19.7012656,46.3261146 C15.940462,46.3261146 13.8914286,44.9129139 13.8914286,41.6827409 C13.8914286,36.6734491 16.4368117,32.5095541 22.0175643,32.5095541 Z M19.6185407,45.1905069 C21.6993914,45.1905069 23.3284366,37.7333496 23.2711655,35.2602484 C23.2711655,34.004771 22.8002696,33.5063654 22.1639238,33.5063654 C20.0767096,33.5063654 18.3458491,40.9887584 18.3458491,43.5123311 C18.3458491,44.7488817 18.8358354,45.1905069 19.6185407,45.1905069 Z M39.2152558,32.5095541 C39.8188228,32.551449 40.3935924,32.7829889 40.8571429,33.1709711 L39.5497143,36.890683 C38.9935057,36.6089757 38.3846802,36.4457299 37.7618817,36.4113074 C35.663915,36.4113074 34.1132439,41.9210928 32.8970312,45.5133758 L28.8592053,45.1068167 C29.9355535,41.1747232 30.6835243,36.9938398 30.7443349,34.754731 L27.8983973,34.5059411 L27.7828571,33.9476809 L34.9098631,32.5095541 C34.9021576,35.0065276 34.5855753,37.4930028 33.9672983,39.9125697 L33.9672983,39.948978 C34.9585116,37.4550113 37.0868837,32.5095541 39.2152558,32.5095541 Z M126.06698,35.4064226 C126.455659,36.0698162 126.657143,36.9057705 126.657143,37.9341307 C126.657143,42.950294 124.073869,47.1388535 118.571749,47.1388535 C114.829801,47.1388535 112.765714,45.7616198 112.765714,42.4701575 C112.765714,37.4603118 115.348988,33.322293 120.933418,33.322293 C123.380989,33.322293 125.114877,33.9128904 125.99492,35.2887466 L125.84,34.8672758 L133.295067,33.3475172 C133.364415,36.1003176 132.933848,38.8430295 132.023956,41.4444883 L132.087511,41.5201609 C133.314133,38.8274766 135.646622,33.322293 139.459956,33.322293 C141.061556,33.322293 141.805156,34.1609979 141.805156,35.1762724 C141.760442,36.1628181 141.572059,37.1377497 141.245867,38.0707503 L140.610311,40.322011 C140.256892,41.3084056 139.980666,42.3203743 139.784089,43.3489161 C139.784089,43.6894429 139.847644,44.0867242 139.885778,44.5029237 L142.860178,44.1939271 L143,44.8119202 L136.345733,47.1388535 C135.632809,46.143362 135.291261,44.932731 135.379689,43.7146671 C135.379689,42.2768872 136.282178,39.9688721 137.070267,37.5977964 C137.190676,37.2421693 137.269576,36.8740122 137.305422,36.5005433 C137.317822,36.3890396 137.284331,36.2772909 137.212541,36.190627 C137.140751,36.103963 137.036742,36.0497231 136.924089,36.0402015 C134.8776,36.0402015 132.023956,43.7714216 131.121467,46.8803054 L126.882311,46.4641059 C127.988178,42.3967022 128.8716,38.0139959 128.8716,35.6996747 L126.06698,35.4064226 Z M109.825064,44.4522564 L112.64784,44.1378507 L112.765714,44.7666621 L106.040682,47.0869766 C105.661871,45.9879388 105.452613,44.8362443 105.420291,43.6725302 C105.420291,40.7925735 106.617645,38.4030898 107.380725,35.6803361 L105.73669,35.5168451 L103.478469,35.5168451 C103.667012,36.0462152 103.773737,36.601931 103.794868,37.1643312 C103.794868,39.8493563 102.088795,42.4337715 97.5599442,42.4337715 C96.6767647,42.4208098 95.7964749,42.328219 94.9294887,42.1570945 L93.6887078,43.8611736 C94.2346514,44.4774089 94.8240223,44.6220355 97.8267121,44.6220355 L99.5079703,44.6220355 C101.567667,44.6220355 103.590139,45.2319827 103.590139,47.6969237 C103.590139,51.0359127 100.33309,52.8280255 95.6677533,52.8280255 C92.2928293,52.8280255 89.8857143,52.0105705 89.8857143,49.7468492 C89.9194933,49.3964509 89.9902076,49.0507283 90.096647,48.7155983 L93.4715711,48.1748204 L93.4715711,48.1182274 C92.4344296,47.6692327 91.6355069,46.7931287 91.2753889,45.7098794 C92.0204933,44.3216209 92.9447317,43.0401514 94.0237186,41.8992817 C92.9057264,41.1971429 92.2596046,39.9284405 92.3424605,38.5980214 C92.3424605,35.2590324 94.6565169,33.3285811 98.8131329,33.3285811 C100.159903,33.2942242 101.490875,33.6287682 102.665758,34.2969508 L106.077905,33.7435967 L105.941419,34.5107467 L111.940595,33.322293 C111.940595,35.8501152 110.743241,38.9501558 110.079424,41.2767584 C109.896875,41.8922509 109.772241,42.5238818 109.707189,43.1631928 C109.718215,43.5950558 109.757594,44.0256958 109.825064,44.4522564 Z M94.7247598,48.3508877 L94.7247598,48.3760401 C94.309136,48.6991623 94.0549728,49.1913875 94.0299225,49.7216967 C94.0299225,51.0170484 95.1094019,51.6458599 96.5611156,51.6458599 C98.4471026,51.6458599 99.9546514,50.5391516 99.9546514,49.4450197 C99.9546514,48.3508877 99.1295321,48.3508877 98.1927425,48.3508877 L94.7247598,48.3508877 Z M97.3738271,41.3773682 L97.3738271,41.4025207 C98.5711807,41.4025207 99.7064952,37.9817861 99.7064952,35.7180648 C99.7064952,34.9194742 99.5079703,34.3472557 98.8255407,34.3472557 C97.3738271,34.3472557 96.4308336,38.1578534 96.4308336,40.0065592 C96.4308336,41.03781 96.7534366,41.3773682 97.3738271,41.3773682 Z M111.948571,30.0430228 L109.113829,32.5095541 L107.045714,30.1374054 L109.8448,27.633121 L111.948571,30.0430228 Z M118.489439,46.0459111 C120.553525,46.0459111 122.136414,38.5343014 122.149077,36.0578077 C122.149077,34.7627026 121.686873,34.3457419 121.053718,34.3457419 C118.951642,34.3457419 117.286444,41.851034 117.286444,44.3275277 C117.286444,45.6226329 117.710658,46.0459111 118.489439,46.0459111 L118.489439,46.0459111 Z M89.5976769,40.2229373 L90.6677079,40.2229373 L89.3301691,44.4277172 C87.3331927,45.3203864 85.5041862,46.3177134 83.1090587,46.3177134 C82.0532269,46.3747737 81.0021461,46.1403164 80.0731568,45.6405161 L79.9985035,45.8498316 C75.1647006,45.4373569 73.2361564,45.7082358 71.3698233,42.0144321 L69.0680124,37.4033338 L68.1348458,37.4033338 L66.735096,44.5631567 L69.3915101,45.2465103 L69.2484246,45.8621443 L58.8342857,45.8621443 L58.9711501,45.2465103 L61.8764087,44.5631567 L64.6821295,29.7263785 L62.0879265,29.0614938 L62.2247909,28.4458599 L72.763352,28.4458599 C74.6296851,28.4458599 78.1943814,28.4458599 78.1943814,31.930348 C78.1943814,34.8115149 75.7930328,36.2705674 73.7089608,36.7569182 L75.7370428,40.4507219 C77.0061493,42.7531929 77.8273359,43.9844608 79.1710958,44.7601595 C78.7282264,44.0338558 78.5118166,43.1943618 78.5489847,42.3468744 C78.5489847,37.0708915 81.5164544,32.8476426 87.5695949,32.8476426 C89.9087324,32.8476426 91.52,33.0631145 91.52,34.5837303 C91.4601926,35.2444263 91.3562805,35.900483 91.2089445,36.5476026 L83.519652,40.0136218 C83.3222579,40.9669874 83.2036647,41.9346802 83.1650487,42.9071013 C83.1650487,44.5077496 83.6565164,45.0495075 84.7389896,45.0495075 C87.2585393,45.0495075 89.2057469,41.0232615 89.5976769,40.2229373 Z M86.9972527,33.8449696 L87.0221371,33.8449696 C85.945885,33.8449696 84.2350797,37.206331 83.6565164,39.3179554 L85.8027995,38.0866875 C86.0640861,37.9758734 86.3502572,37.6742128 86.6861972,36.7446055 C87.0180868,35.9982684 87.2482111,35.2115703 87.3705193,34.4051965 C87.3705193,34.0542852 87.1776649,33.8449696 86.9972527,33.8449696 Z M68.2281625,36.7446055 L68.2530469,36.7446055 C69.8207668,36.5476026 73.2237142,35.4025235 73.1988297,31.7825959 C73.1988297,29.7202221 71.9421654,29.4247179 70.5610789,29.4247179 C70.2500234,29.4247179 69.9327468,29.5047503 69.5408168,29.5047503 L68.2281625,36.7446055 Z" id="Shape"></path>
        </g>
    </g>
</svg>